<svg width="512" height="512" viewBox="0 0 512 512" fill="none" xmlns="http://www.w3.org/2000/svg">
<g clip-path="url(#clip0_69_263)">
<path d="M264.539 162.155H247.47V486.465H264.539V162.155Z" fill="#783178"/>
<path d="M443.379 487.438C430.21 497.44 411.827 497.44 398.641 487.421C379.43 472.904 352.598 472.887 333.378 487.438C320.209 497.44 301.826 497.44 288.64 487.421C269.42 472.904 242.588 472.895 223.36 487.438C210.191 497.449 191.8 497.432 178.622 487.421C159.411 472.904 132.578 472.887 113.35 487.438C100.19 497.449 81.7899 497.432 68.6119 487.421C49.4009 472.904 22.5679 472.912 3.35693 487.421L13.6499 501.042C26.8019 491.099 45.1759 491.099 58.3019 501.025C77.5469 515.653 104.431 515.653 123.659 501.042C136.802 491.091 155.168 491.099 168.311 501.025C177.939 508.339 189.47 512 201.008 512C212.53 512 224.06 508.339 233.669 501.042C246.821 491.091 265.187 491.099 278.33 501.025C297.55 515.653 324.433 515.645 343.687 501.042C356.839 491.091 375.196 491.108 388.331 501.025C407.559 515.653 434.443 515.645 453.688 501.042C466.848 491.082 485.214 491.099 498.34 501.042L508.641 487.421C489.431 472.895 462.59 472.895 443.379 487.438Z" fill="#783178"/>
<path d="M409.625 68.276H102.384C97.6731 68.276 93.8501 72.099 93.8501 76.81V213.362H110.919V85.345H401.09V213.362H418.159V76.81C418.159 72.099 414.344 68.276 409.625 68.276Z" fill="#783178"/>
<path d="M291.03 7.596C290.552 3.269 286.899 0 282.546 0H229.462C225.118 0 221.465 3.269 220.979 7.596L213.383 75.872L230.35 77.75L237.101 17.07H274.909L281.651 77.75L298.626 75.872L291.03 7.596Z" fill="#783178"/>
<path d="M315.746 0H196.263V17.069H315.746V0Z" fill="#783178"/>
<path d="M480.956 231.003L295.86 159.834C283.161 154.918 269.821 152.426 256.209 152.426C256.132 152.426 256.064 152.426 255.987 152.426L256.021 169.495C256.081 169.495 256.149 169.495 256.209 169.495C267.705 169.495 278.979 171.603 289.724 175.759L468.922 244.658C462.478 324.558 434.511 401.103 387.827 466.409L377.065 481.515L390.968 491.415L401.713 476.326C451.452 406.753 480.742 324.865 486.409 239.537C486.648 235.807 484.438 232.351 480.956 231.003Z" fill="#783178"/>
<path d="M255.808 152.417C242.196 152.417 228.848 154.909 216.165 159.816L31.0529 230.994C27.5539 232.342 25.3519 235.79 25.5989 239.528C31.2739 324.856 60.5559 406.744 110.287 476.308L121.04 491.414L134.934 481.514L124.172 466.4C77.5059 401.103 49.5299 324.557 43.0859 244.658L222.31 175.742C233.038 171.594 244.303 169.486 255.808 169.486C255.868 169.486 255.936 169.486 255.996 169.486L256.03 152.417C255.953 152.417 255.885 152.417 255.808 152.417Z" fill="#783178"/>
<path d="M409.625 443.793H102.384V460.862H409.625V443.793Z" fill="#783178"/>
<path d="M278.219 204.512C263.89 198.777 248.118 198.768 233.806 204.512L39.4761 282.253L45.8171 298.102L240.155 220.353C250.379 216.257 261.645 216.265 271.878 220.353L466.208 298.102L472.541 282.253L278.219 204.512Z" fill="#783178"/>
<path d="M264.539 102.414H247.47V119.483H264.539V102.414Z" fill="#783178"/>
<path d="M230.401 102.414H213.332V119.483H230.401V102.414Z" fill="#783178"/>
<path d="M196.263 102.414H179.194V119.483H196.263V102.414Z" fill="#783178"/>
<path d="M162.125 102.414H145.056V119.483H162.125V102.414Z" fill="#783178"/>
<path d="M298.677 102.414H281.608V119.483H298.677V102.414Z" fill="#783178"/>
<path d="M332.815 102.414H315.746V119.483H332.815V102.414Z" fill="#783178"/>
<path d="M366.952 102.414H349.883V119.483H366.952V102.414Z" fill="#783178"/>
<path d="M127.987 102.414H110.918V119.483H127.987V102.414Z" fill="#783178"/>
<path d="M401.09 102.414H384.021V119.483H401.09V102.414Z" fill="#783178"/>
<path d="M264.539 136.552H247.47V153.621H264.539V136.552Z" fill="#783178"/>
<path d="M230.401 136.552H213.332V153.621H230.401V136.552Z" fill="#783178"/>
<path d="M196.263 136.552H179.194V153.621H196.263V136.552Z" fill="#783178"/>
<path d="M162.125 136.552H145.056V153.621H162.125V136.552Z" fill="#783178"/>
<path d="M298.677 136.552H281.608V153.621H298.677V136.552Z" fill="#783178"/>
<path d="M332.815 136.552H315.746V153.621H332.815V136.552Z" fill="#783178"/>
<path d="M366.952 136.552H349.883V153.621H366.952V136.552Z" fill="#783178"/>
<path d="M127.987 136.552H110.918V153.621H127.987V136.552Z" fill="#783178"/>
<path d="M401.09 136.552H384.021V153.621H401.09V136.552Z" fill="#783178"/>
<path d="M162.125 170.689H145.056V187.758H162.125V170.689Z" fill="#783178"/>
<path d="M366.952 170.689H349.883V187.758H366.952V170.689Z" fill="#783178"/>
<path d="M127.987 170.689H110.918V187.758H127.987V170.689Z" fill="#783178"/>
<path d="M401.09 170.689H384.021V187.758H401.09V170.689Z" fill="#783178"/>
<path d="M230.401 34.1379H196.263V51.2069H230.401V34.1379Z" fill="#783178"/>
<path d="M315.746 34.1379H281.608V51.2069H315.746V34.1379Z" fill="#783178"/>
<path d="M179.194 17.069H162.125V76.81H179.194V17.069Z" fill="#783178"/>
<path d="M349.883 17.069H332.814V76.81H349.883V17.069Z" fill="#783178"/>
<path d="M145.056 17.069H127.987V76.81H145.056V17.069Z" fill="#783178"/>
<path d="M384.021 17.069H366.952V76.81H384.021V17.069Z" fill="#783178"/>
</g>
<defs>
<clipPath id="clip0_69_263">
<rect width="512" height="512" fill="white"/>
</clipPath>
</defs>
</svg>
