<svg width="642" height="842" viewBox="0 0 642 842" fill="none" xmlns="http://www.w3.org/2000/svg">
<line x1="204" y1="93" x2="204" y2="571" stroke="#46DA2E" stroke-width="10"/>
<line x1="205" y1="188" x2="371" y2="188" stroke="black" stroke-width="10"/>
<line x1="368.015" y1="182.648" x2="449.801" y2="285.114" stroke="black" stroke-width="10"/>
<line x1="208.52" y1="574.813" x2="108.536" y2="659.614" stroke="#2D3688" stroke-width="10"/>
<line x1="457.015" y1="290.648" x2="538.801" y2="393.114" stroke="black" stroke-width="10"/>
<line x1="103.218" y1="666.99" x2="3.23401" y2="751.791" stroke="#74CF2C" stroke-width="10"/>
<line x1="469.015" y1="92.6482" x2="550.801" y2="195.114" stroke="#74CF2C" stroke-width="10"/>
<line x1="301.488" y1="673.088" x2="201.504" y2="757.889" stroke="black" stroke-width="10"/>
<line x1="546.015" y1="196.648" x2="627.801" y2="299.114" stroke="black" stroke-width="10"/>
<line x1="199.827" y1="753.151" x2="99.8429" y2="837.952" stroke="black" stroke-width="10"/>
<line x1="367.457" y1="187.377" x2="459.96" y2="94.4722" stroke="#2D3688" stroke-width="10"/>
<line x1="203.777" y1="574.396" x2="299.395" y2="664.091" stroke="#2D3688" stroke-width="10"/>
<line x1="456.457" y1="295.377" x2="548.96" y2="202.472" stroke="#2D3688" stroke-width="10"/>
<line x1="98.4752" y1="666.573" x2="194.093" y2="756.267" stroke="#74CF2C" stroke-width="10"/>
<line x1="468.457" y1="97.3767" x2="560.96" y2="4.47217" stroke="#74CF2C" stroke-width="10"/>
<line x1="296.745" y1="672.671" x2="392.363" y2="762.366" stroke="black" stroke-width="10"/>
<line x1="545.457" y1="201.377" x2="637.96" y2="108.472" stroke="black" stroke-width="10"/>
<circle cx="371" cy="184" r="18" fill="#E21818"/>
<circle cx="460" cy="292" r="18" fill="#E21818"/>
<circle cx="101.956" cy="670.014" r="18" transform="rotate(88.2934 101.956 670.014)" fill="#E21818"/>
<circle cx="472" cy="94" r="18" fill="#E21818"/>
<circle cx="300.226" cy="676.112" r="18" transform="rotate(88.2934 300.226 676.112)" fill="#E21818"/>
<circle cx="549" cy="198" r="18" fill="#E21818"/>
<circle cx="198.565" cy="756.175" r="18" transform="rotate(88.2934 198.565 756.175)" fill="#E21818"/>
<circle cx="208.528" cy="577.528" r="18" transform="rotate(88.2934 208.528 577.528)" fill="#E21818"/>
<circle cx="203.528" cy="95.5281" r="18" transform="rotate(88.2934 203.528 95.5281)" fill="#E21818"/>
</svg>
