<svg width="291" height="171" viewBox="0 0 291 171" fill="none" xmlns="http://www.w3.org/2000/svg">
<path d="M145.067 0C65.075 0 0 65.075 0 145.067V162.134C0 165.581 2.082 168.696 5.274 170.019C8.448 171.342 12.126 170.616 14.567 168.176C30.064 152.705 55.28 152.705 70.776 168.176C74.104 171.504 79.506 171.504 82.834 168.176C98.331 152.705 123.547 152.705 139.043 168.176C142.371 171.504 147.773 171.504 151.101 168.176C166.598 152.705 191.814 152.705 207.31 168.176C210.638 171.504 216.04 171.504 219.368 168.176C234.856 152.705 260.089 152.697 275.569 168.176C277.199 169.797 279.383 170.668 281.602 170.668C282.703 170.668 283.812 170.455 284.87 170.019C288.061 168.696 290.135 165.582 290.135 162.134V145.067C290.133 65.075 225.058 0 145.067 0ZM273.067 145.562C254.055 135.996 230.759 137.763 213.334 150.861C203.265 143.292 191.233 139.503 179.201 139.503C167.169 139.503 155.137 143.292 145.068 150.861C124.938 135.731 96.931 135.731 76.801 150.861C59.376 137.762 36.08 135.987 17.068 145.562V145.067C17.068 74.488 74.489 17.067 145.068 17.067C215.647 17.067 273.068 74.488 273.068 145.067V145.562H273.067Z" fill="#BC7045"/>
</svg>
