<svg width="232" height="45" viewBox="0 0 232 45" fill="none" xmlns="http://www.w3.org/2000/svg">
<path d="M36.848 1.8L31.88 27H25.292L27.884 13.716L19.496 24.516H16.364L11.792 13.716L9.128 27H2.576L7.616 1.8H13.412L19.316 16.38L30.764 1.8H36.848ZM141.104 1.8H148.232L144.344 21.348H156.368L155.216 27H136.064L141.104 1.8Z" fill="#FFD700"/>
<path d="M46.6797 27.216C44.8797 27.216 43.3077 26.88 41.9637 26.208C40.6197 25.512 39.5757 24.54 38.8317 23.292C38.0877 22.044 37.7157 20.604 37.7157 18.972C37.7157 16.836 38.1957 14.916 39.1557 13.212C40.1157 11.508 41.4477 10.176 43.1517 9.216C44.8557 8.232 46.7757 7.74 48.9117 7.74C50.7117 7.74 52.2837 8.076 53.6277 8.748C54.9717 9.42 56.0037 10.38 56.7237 11.628C57.4677 12.852 57.8397 14.292 57.8397 15.948C57.8397 18.084 57.3597 20.016 56.3997 21.744C55.4397 23.448 54.1077 24.792 52.4037 25.776C50.7237 26.736 48.8157 27.216 46.6797 27.216ZM46.8957 24.192C48.3117 24.192 49.5837 23.856 50.7117 23.184C51.8637 22.488 52.7517 21.528 53.3757 20.304C54.0237 19.08 54.3477 17.688 54.3477 16.128C54.3477 14.424 53.8557 13.104 52.8717 12.168C51.8877 11.232 50.4837 10.764 48.6597 10.764C47.2437 10.764 45.9717 11.112 44.8437 11.808C43.7157 12.48 42.8277 13.428 42.1797 14.652C41.5317 15.876 41.2077 17.268 41.2077 18.828C41.2077 20.508 41.6997 21.828 42.6837 22.788C43.6917 23.724 45.0957 24.192 46.8957 24.192ZM65.7152 20.916C65.6432 21.276 65.6072 21.612 65.6072 21.924C65.6072 22.692 65.8112 23.28 66.2192 23.688C66.6512 24.096 67.2872 24.3 68.1272 24.3C69.1352 24.3 70.0472 24 70.8632 23.4L71.5832 26.028C70.4312 26.82 68.9552 27.216 67.1552 27.216C65.6432 27.216 64.4192 26.796 63.4832 25.956C62.5712 25.092 62.1152 23.916 62.1152 22.428C62.1152 21.924 62.1632 21.444 62.2592 20.988L64.3112 10.764H61.0712L61.6112 7.92H64.8872L65.7152 3.744H69.1712L68.3432 7.92H73.8152L73.2392 10.764H67.7672L65.7152 20.916ZM89.0455 7.74C91.2295 7.74 92.9215 8.292 94.1215 9.396C95.3455 10.5 95.9575 12.06 95.9575 14.076C95.9575 14.772 95.8855 15.516 95.7415 16.308L93.6175 27H90.1615L92.2855 16.308C92.4055 15.66 92.4655 15.132 92.4655 14.724C92.4655 13.476 92.0935 12.516 91.3495 11.844C90.6055 11.172 89.5015 10.836 88.0375 10.836C86.1655 10.836 84.6175 11.352 83.3935 12.384C82.1935 13.392 81.3895 14.904 80.9815 16.92L78.9655 27H75.5095L80.8375 0.287998H84.2935L82.3135 10.152C84.0175 8.544 86.2615 7.74 89.0455 7.74ZM103.467 18.54V18.756C103.467 20.532 103.971 21.888 104.979 22.824C105.987 23.736 107.499 24.192 109.515 24.192C110.691 24.192 111.795 24 112.827 23.616C113.859 23.208 114.723 22.668 115.419 21.996L116.895 24.48C115.959 25.344 114.819 26.016 113.475 26.496C112.131 26.976 110.715 27.216 109.227 27.216C107.355 27.216 105.735 26.88 104.367 26.208C102.999 25.536 101.943 24.576 101.199 23.328C100.455 22.08 100.083 20.616 100.083 18.936C100.083 16.8 100.539 14.88 101.451 13.176C102.387 11.472 103.671 10.14 105.303 9.18C106.959 8.22 108.807 7.74 110.847 7.74C113.439 7.74 115.503 8.484 117.039 9.972C118.599 11.436 119.379 13.44 119.379 15.984C119.379 16.752 119.295 17.604 119.127 18.54H103.467ZM110.703 10.62C108.999 10.62 107.535 11.1 106.311 12.06C105.087 13.02 104.259 14.34 103.827 16.02H116.139C116.235 14.316 115.779 12.996 114.771 12.06C113.787 11.1 112.431 10.62 110.703 10.62ZM128.679 10.764C129.519 9.708 130.551 8.94 131.775 8.46C132.999 7.98 134.487 7.74 136.239 7.74L135.591 11.088C135.375 11.064 135.075 11.052 134.691 11.052C130.731 11.052 128.331 13.188 127.491 17.46L125.583 27H122.127L125.907 7.92H129.219L128.679 10.764ZM180.609 7.92L176.829 27H173.517L173.985 24.66C173.121 25.476 172.113 26.112 170.961 26.568C169.833 27 168.597 27.216 167.253 27.216C165.621 27.216 164.169 26.892 162.897 26.244C161.625 25.572 160.629 24.612 159.909 23.364C159.189 22.116 158.829 20.652 158.829 18.972C158.829 16.812 159.297 14.88 160.233 13.176C161.169 11.472 162.453 10.14 164.085 9.18C165.741 8.22 167.589 7.74 169.629 7.74C171.261 7.74 172.653 8.028 173.805 8.604C174.981 9.18 175.881 10.032 176.505 11.16L177.153 7.92H180.609ZM168.009 24.192C169.425 24.192 170.697 23.856 171.825 23.184C172.977 22.488 173.865 21.528 174.489 20.304C175.137 19.08 175.461 17.688 175.461 16.128C175.461 14.424 174.969 13.104 173.985 12.168C173.001 11.232 171.597 10.764 169.773 10.764C168.357 10.764 167.085 11.112 165.957 11.808C164.829 12.48 163.941 13.428 163.293 14.652C162.645 15.876 162.321 17.268 162.321 18.828C162.321 20.508 162.813 21.828 163.797 22.788C164.805 23.724 166.209 24.192 168.009 24.192ZM196.94 7.74C199.124 7.74 200.816 8.292 202.016 9.396C203.24 10.5 203.852 12.06 203.852 14.076C203.852 14.772 203.78 15.516 203.636 16.308L201.512 27H198.056L200.18 16.308C200.3 15.66 200.36 15.132 200.36 14.724C200.36 13.476 199.988 12.516 199.244 11.844C198.5 11.172 197.396 10.836 195.932 10.836C194.06 10.836 192.512 11.352 191.288 12.384C190.088 13.392 189.284 14.904 188.876 16.92L186.86 27H183.404L187.184 7.92H190.496L190.028 10.368C191.756 8.616 194.06 7.74 196.94 7.74ZM231.305 0.287998L225.977 27H222.665L223.133 24.66C222.269 25.476 221.261 26.112 220.109 26.568C218.981 27 217.745 27.216 216.401 27.216C214.769 27.216 213.317 26.892 212.045 26.244C210.773 25.572 209.777 24.612 209.057 23.364C208.337 22.116 207.977 20.652 207.977 18.972C207.977 16.812 208.445 14.88 209.381 13.176C210.317 11.472 211.601 10.14 213.233 9.18C214.889 8.22 216.737 7.74 218.777 7.74C220.409 7.74 221.813 8.04 222.989 8.64C224.189 9.216 225.089 10.068 225.689 11.196L227.849 0.287998H231.305ZM217.157 24.192C218.573 24.192 219.845 23.856 220.973 23.184C222.125 22.488 223.013 21.528 223.637 20.304C224.285 19.08 224.609 17.688 224.609 16.128C224.609 14.424 224.117 13.104 223.133 12.168C222.149 11.232 220.745 10.764 218.921 10.764C217.505 10.764 216.233 11.112 215.105 11.808C213.977 12.48 213.089 13.428 212.441 14.652C211.793 15.876 211.469 17.268 211.469 18.828C211.469 20.508 211.961 21.828 212.945 22.788C213.953 23.724 215.357 24.192 217.157 24.192Z" fill="white"/>
<path d="M67.8 42.0667L69.578 33.7227H66.344L66.666 32.2666H74.73L74.408 33.7227H71.23L69.438 42.0667H67.8ZM76.4229 42.2067C75.8162 42.2067 75.2749 42.0667 74.7989 41.7867C74.3229 41.4973 73.9496 41.1053 73.6789 40.6107C73.4082 40.116 73.2729 39.556 73.2729 38.9307C73.2729 38.38 73.3709 37.862 73.5669 37.3767C73.7629 36.8913 74.0336 36.4667 74.3789 36.1026C74.7242 35.7386 75.1256 35.454 75.5829 35.2487C76.0402 35.034 76.5349 34.9266 77.0669 34.9266C77.6829 34.9266 78.2242 35.0666 78.6909 35.3467C79.1669 35.6267 79.5402 36.014 79.8109 36.5087C80.0816 37.0033 80.2169 37.568 80.2169 38.2027C80.2169 38.7533 80.1142 39.2713 79.9089 39.7567C79.7129 40.2327 79.4422 40.6573 79.0969 41.0307C78.7516 41.3947 78.3456 41.684 77.8789 41.8987C77.4216 42.104 76.9362 42.2067 76.4229 42.2067ZM76.5069 40.8347C76.9176 40.8347 77.2862 40.7227 77.6129 40.4987C77.9396 40.2653 78.1962 39.9527 78.3829 39.5607C78.5789 39.1593 78.6769 38.716 78.6769 38.2307C78.6769 37.6427 78.5182 37.1713 78.2009 36.8166C77.8929 36.4526 77.4822 36.2706 76.9689 36.2706C76.5676 36.2706 76.2036 36.3873 75.8769 36.6206C75.5502 36.854 75.2889 37.1667 75.0929 37.5587C74.8969 37.9507 74.7989 38.3893 74.7989 38.8747C74.7989 39.4627 74.9529 39.9387 75.2609 40.3027C75.5782 40.6573 75.9936 40.8347 76.5069 40.8347ZM83.5334 42.1647C83.048 42.1647 82.6374 42.048 82.3014 41.8147C81.9654 41.5813 81.732 41.264 81.6014 40.8627C81.4707 40.452 81.4614 39.9947 81.5734 39.4907L82.5254 35.0526H84.0794L83.1974 39.1267C83.076 39.6493 83.1274 40.0787 83.3514 40.4147C83.5847 40.7413 83.9394 40.9047 84.4154 40.9047C84.7047 40.9047 84.98 40.844 85.2414 40.7227C85.5027 40.592 85.7454 40.396 85.9694 40.1347L87.0754 35.0526H88.6434L87.1174 42.0667H85.5634L85.7734 41.0167C85.456 41.39 85.1107 41.6747 84.7374 41.8707C84.364 42.0667 83.9627 42.1647 83.5334 42.1647ZM89.0258 42.0667L90.5518 35.0526H92.1198L91.8118 36.4387C92.1104 35.944 92.4324 35.5707 92.7778 35.3187C93.1324 35.0667 93.5058 34.9407 93.8978 34.9407C94.1964 34.9407 94.4578 34.9967 94.6818 35.1087L94.3738 36.4946C94.2898 36.4387 94.1544 36.392 93.9678 36.3547C93.7904 36.308 93.6178 36.2847 93.4498 36.2847C93.1044 36.2847 92.7731 36.378 92.4558 36.5647C92.1384 36.742 91.8584 36.9987 91.6158 37.3346L90.5798 42.0667H89.0258ZM119.868 42.0667L121.646 33.7227H118.412L118.734 32.2666H126.798L126.476 33.7227H123.298L121.506 42.0667H119.868ZM125.153 42.0667L126.679 35.0526H128.247L127.939 36.4387C128.237 35.944 128.559 35.5707 128.905 35.3187C129.259 35.0667 129.633 34.9407 130.025 34.9407C130.323 34.9407 130.585 34.9967 130.809 35.1087L130.501 36.4946C130.417 36.4387 130.281 36.392 130.095 36.3547C129.917 36.308 129.745 36.2847 129.577 36.2847C129.231 36.2847 128.9 36.378 128.583 36.5647C128.265 36.742 127.985 36.9987 127.743 37.3346L126.707 42.0667H125.153ZM132.715 42.1507C132.034 42.1507 131.488 41.978 131.077 41.6327C130.666 41.278 130.461 40.8067 130.461 40.2187C130.461 39.752 130.573 39.3553 130.797 39.0287C131.021 38.6927 131.338 38.4313 131.749 38.2447C132.169 38.058 132.659 37.9647 133.219 37.9647C133.602 37.9647 133.966 38.0113 134.311 38.1047C134.666 38.1887 134.988 38.31 135.277 38.4687L135.417 37.8667C135.538 37.3253 135.473 36.9193 135.221 36.6487C134.969 36.378 134.535 36.2427 133.919 36.2427C133.658 36.2427 133.373 36.28 133.065 36.3547C132.766 36.42 132.416 36.532 132.015 36.6907L131.637 35.5427C132.141 35.3467 132.608 35.202 133.037 35.1087C133.476 35.006 133.896 34.9547 134.297 34.9547C134.978 34.9547 135.538 35.0713 135.977 35.3047C136.425 35.5287 136.733 35.8553 136.901 36.2847C137.078 36.7047 137.102 37.2133 136.971 37.8107L136.033 42.0667H134.493L134.633 41.4367C134.297 41.6793 133.975 41.8613 133.667 41.9827C133.368 42.0947 133.051 42.1507 132.715 42.1507ZM133.275 41.0587C133.555 41.0587 133.821 41.0167 134.073 40.9327C134.325 40.8487 134.572 40.718 134.815 40.5407L135.081 39.3647C134.857 39.234 134.605 39.136 134.325 39.0707C134.045 39.0053 133.737 38.9727 133.401 38.9727C132.953 38.9727 132.589 39.0753 132.309 39.2807C132.038 39.4767 131.903 39.738 131.903 40.0647C131.903 40.382 132.024 40.6293 132.267 40.8067C132.51 40.9747 132.846 41.0587 133.275 41.0587ZM139.569 42.0667L138.309 35.0526H139.933L140.731 40.1767L143.727 35.0526H145.421L141.067 42.0667H139.569ZM148.688 42.2067C148.044 42.2067 147.47 42.0713 146.966 41.8007C146.471 41.5207 146.084 41.1333 145.804 40.6387C145.524 40.144 145.384 39.5747 145.384 38.9307C145.384 38.3893 145.477 37.8807 145.664 37.4047C145.86 36.9193 146.126 36.4947 146.462 36.1307C146.807 35.7573 147.204 35.468 147.652 35.2626C148.1 35.048 148.576 34.9407 149.08 34.9407C149.659 34.9407 150.167 35.076 150.606 35.3467C151.045 35.608 151.385 35.972 151.628 36.4387C151.88 36.9053 152.006 37.4467 152.006 38.0627C152.006 38.2213 152.001 38.3753 151.992 38.5247C151.983 38.6647 151.969 38.8047 151.95 38.9447H146.896C146.905 39.318 146.989 39.654 147.148 39.9527C147.316 40.242 147.545 40.4753 147.834 40.6527C148.123 40.8207 148.45 40.9047 148.814 40.9047C149.113 40.9047 149.402 40.858 149.682 40.7647C149.971 40.662 150.219 40.522 150.424 40.3447L151.264 41.3667C150.835 41.656 150.415 41.8707 150.004 42.0107C149.593 42.1413 149.155 42.2067 148.688 42.2067ZM147.008 37.9647H150.606C150.597 37.6287 150.517 37.3347 150.368 37.0827C150.228 36.8213 150.041 36.616 149.808 36.4667C149.575 36.3173 149.299 36.2427 148.982 36.2427C148.683 36.2427 148.399 36.3173 148.128 36.4667C147.867 36.6067 147.638 36.8073 147.442 37.0687C147.255 37.3207 147.111 37.6193 147.008 37.9647ZM152.811 42.0667L154.939 32.0287L156.535 31.7486L154.379 42.0667H152.811Z" fill="white"/>
<path d="M112.466 41.4167L111.716 42.1967C111.576 42.09 111.439 41.9733 111.306 41.8467C111.172 41.72 111.032 41.5867 110.886 41.4467C110.266 41.9333 109.572 42.1767 108.806 42.1767C108.346 42.1767 107.942 42.1033 107.596 41.9567C107.256 41.8033 106.992 41.59 106.806 41.3167C106.619 41.0433 106.526 40.7233 106.526 40.3567C106.526 40.0367 106.589 39.7467 106.716 39.4867C106.842 39.2267 107.039 38.9833 107.306 38.7567C107.579 38.53 107.932 38.32 108.366 38.1267C108.252 37.8733 108.172 37.6567 108.126 37.4767C108.079 37.29 108.056 37.1033 108.056 36.9166C108.056 36.5367 108.139 36.2 108.306 35.9066C108.479 35.6067 108.716 35.3733 109.016 35.2066C109.322 35.04 109.669 34.9567 110.056 34.9567C110.376 34.9567 110.659 35.0167 110.906 35.1367C111.152 35.2567 111.342 35.4233 111.476 35.6367C111.616 35.8433 111.686 36.0833 111.686 36.3566C111.686 36.7233 111.572 37.0533 111.346 37.3467C111.126 37.64 110.782 37.9 110.316 38.1267L109.756 38.4067C109.942 38.68 110.142 38.9533 110.356 39.2267C110.569 39.5 110.786 39.7633 111.006 40.0167C111.179 39.8033 111.342 39.56 111.496 39.2867C111.649 39.0133 111.792 38.72 111.926 38.4067L112.866 38.6667C112.692 39.0733 112.502 39.4433 112.296 39.7767C112.096 40.11 111.882 40.41 111.656 40.6767C111.796 40.81 111.932 40.94 112.066 41.0667C112.199 41.1867 112.332 41.3033 112.466 41.4167ZM109.076 36.7867C109.076 36.9333 109.096 37.08 109.136 37.2267C109.182 37.3667 109.252 37.5267 109.346 37.7067L109.876 37.4567C110.136 37.3233 110.329 37.1767 110.456 37.0167C110.589 36.8567 110.656 36.68 110.656 36.4867C110.656 36.28 110.592 36.1166 110.466 35.9966C110.339 35.87 110.169 35.8066 109.956 35.8066C109.702 35.8066 109.492 35.9 109.326 36.0866C109.159 36.2666 109.076 36.5 109.076 36.7867ZM107.586 40.1867C107.586 40.52 107.706 40.7833 107.946 40.9767C108.192 41.17 108.522 41.2667 108.936 41.2667C109.169 41.2667 109.396 41.2267 109.616 41.1467C109.842 41.0667 110.059 40.95 110.266 40.7967C110.026 40.5233 109.782 40.23 109.536 39.9167C109.296 39.5967 109.046 39.24 108.786 38.8467C108.346 39.0533 108.036 39.2633 107.856 39.4767C107.676 39.69 107.586 39.9267 107.586 40.1867Z" fill="#FFD700"/>
<path d="M2 34.9667C1.17157 34.9667 0.5 35.6382 0.5 36.4667C0.5 37.2951 1.17157 37.9667 2 37.9667V34.9667ZM2 37.9667H51V34.9667H2V37.9667Z" fill="#FFD700"/>
<path d="M215 37.9667C215.828 37.9667 216.5 37.2951 216.5 36.4667C216.5 35.6382 215.828 34.9667 215 34.9667V37.9667ZM215 34.9667H166V37.9667H215V34.9667Z" fill="#FFD700"/>
</svg>
